<?xml version="1.0" standalone="no"?>
<!DOCTYPE svg PUBLIC "-//W3C//DTD SVG 20010904//EN"
 "http://www.w3.org/TR/2001/REC-SVG-20010904/DTD/svg10.dtd">
<svg version="1.0" xmlns="http://www.w3.org/2000/svg"
 width="1090.000000pt" height="1090.000000pt" viewBox="0 0 1090.000000 1090.000000"
 preserveAspectRatio="xMidYMid meet">

<g transform="translate(0.000000,1090.000000) scale(0.100000,-0.100000)"
fill="#000000" stroke="none">
<path d="M5150 10739 c-281 -17 -673 -77 -943 -144 -121 -31 -396 -111 -446
-130 -20 -8 -97 -37 -171 -64 -576 -212 -1215 -611 -1658 -1036 -103 -99 -301
-301 -353 -360 -357 -408 -681 -920 -884 -1395 -225 -527 -358 -1033 -422
-1605 -25 -228 -26 -851 0 -1081 122 -1118 545 -2088 1273 -2918 402 -459 899
-857 1459 -1169 92 -51 429 -217 441 -217 3 0 24 -9 47 -19 363 -165 918 -317
1378 -376 389 -49 883 -44 1289 16 1326 193 2517 888 3352 1955 304 389 604
919 766 1355 179 480 268 853 329 1374 25 217 25 862 0 1095 -131 1204 -653
2321 -1482 3169 -632 646 -1358 1087 -2210 1341 -582 173 -1173 243 -1765 209z
m-1754 -2082 c25 -25 526 -693 753 -1002 85 -115 178 -241 206 -280 118 -160
309 -424 572 -790 153 -215 323 -451 376 -525 54 -74 155 -214 224 -310 114
-158 391 -536 670 -915 57 -77 116 -156 133 -175 l29 -35 0 853 c1 500 5 851
10 848 13 -8 21 18 23 77 1 38 2 42 5 17 10 -98 11 -100 53 -100 31 0 40 4 41
18 1 11 4 9 9 -8 4 -14 9 -549 10 -1190 2 -1048 11 -1638 19 -1365 l3 90 9
-54 c5 -30 8 -170 7 -310 l-3 -256 -25 50 c-26 52 -77 127 -155 230 -147 192
-460 614 -540 727 -36 50 -233 317 -273 368 -15 19 -56 76 -92 125 -35 50
-150 205 -255 345 -105 140 -249 334 -320 430 -71 96 -159 216 -195 265 -230
311 -620 843 -760 1036 -47 64 -184 253 -306 420 -251 344 -412 568 -493 683
-44 62 -57 74 -59 58 -2 -11 3 -38 10 -59 10 -30 14 -416 18 -1903 l6 -1865
22 -95 c55 -242 192 -373 463 -445 53 -14 123 -29 155 -33 34 -4 59 -13 62
-20 4 -12 -26 -12 -174 -5 -285 13 -1165 9 -1253 -6 -49 -9 -69 -16 -60 -22
10 -6 2 -9 -23 -9 -28 0 -38 5 -43 21 -4 11 -5 22 -3 24 2 2 50 15 107 29 59
15 143 45 197 72 217 106 293 254 324 629 6 72 10 824 11 1865 1 1487 3 1735
15 1680 13 -65 13 -64 9 67 -6 197 -44 319 -141 449 -113 153 -265 248 -457
286 -56 11 -104 22 -106 24 -18 16 85 19 586 16 l578 -4 21 -21z m3694 17 c0
-6 -27 -15 -60 -22 -33 -6 -88 -23 -122 -38 -66 -29 -160 -85 -153 -92 2 -2
-7 -16 -21 -31 -34 -38 -96 -171 -122 -261 -48 -168 -55 -261 -61 -825 -5
-464 -8 -529 -21 -526 -31 9 -116 9 -137 0 -15 -5 -23 -17 -23 -33 0 -32 21
-35 260 -36 852 -1 1408 -171 1875 -572 381 -327 614 -792 701 -1398 24 -171
29 -510 10 -670 -23 -187 -48 -312 -56 -280 -5 20 -11 7 -29 -60 -31 -118 -50
-170 -51 -143 0 29 20 123 32 149 7 15 7 28 -1 40 -9 17 -10 15 -11 -13 0 -23
-5 -33 -15 -33 -8 0 -15 7 -15 15 0 8 5 15 10 15 15 0 12 37 -4 63 -10 16 -11
29 -5 47 8 20 12 22 19 10 7 -11 10 -8 10 13 0 16 -4 26 -10 22 -10 -6 -11 -1
-16 69 -1 21 -8 42 -15 47 -10 6 -7 10 11 17 14 5 33 8 43 6 12 -2 17 4 17 22
0 15 -6 24 -15 24 -8 0 -15 5 -15 11 0 7 -14 10 -35 7 -24 -3 -35 0 -35 9 0 7
-4 13 -10 13 -5 0 -10 -13 -10 -29 0 -27 -3 -29 -50 -35 -43 -6 -51 -10 -56
-34 -4 -15 -15 -34 -24 -42 -9 -8 -23 -30 -31 -48 -13 -30 -39 -45 -39 -22 0
6 -9 10 -20 10 -11 0 -20 -7 -20 -15 0 -8 7 -15 15 -15 8 0 15 -4 15 -10 0 -5
-7 -10 -15 -10 -8 0 -15 -4 -15 -10 0 -5 -9 -10 -19 -10 -11 0 -22 -8 -26 -19
-3 -10 -11 -18 -18 -18 -36 1 -47 -5 -47 -23 0 -23 -38 -28 -59 -7 -11 10 -12
5 -7 -25 4 -24 3 -38 -4 -38 -5 0 -10 -9 -10 -20 0 -11 -4 -28 -9 -38 -5 -9
-16 -42 -25 -72 -47 -166 -96 -322 -115 -364 -22 -51 -27 -71 -11 -46 9 13 10
13 10 0 0 -8 -5 -22 -10 -30 -9 -13 -10 -13 -10 0 -1 8 -7 0 -15 -19 -19 -42
-19 -50 0 -25 13 18 14 16 14 -21 1 -22 -8 -59 -19 -82 -10 -24 -17 -43 -14
-43 3 0 -2 -7 -10 -16 -9 -8 -16 -24 -16 -35 0 -23 -35 -94 -50 -104 -5 -3
-10 -1 -10 5 0 6 -5 8 -11 4 -8 -4 -7 -9 2 -16 11 -7 11 -11 2 -15 -7 -2 -13
-14 -13 -26 -1 -24 -36 -70 -61 -79 -9 -4 -25 -24 -36 -45 -11 -21 -31 -44
-44 -50 -13 -7 -23 -19 -21 -27 2 -10 -9 -17 -32 -22 -22 -4 -38 -13 -41 -25
-4 -10 -11 -19 -16 -19 -5 0 -9 -7 -9 -15 0 -29 -30 -75 -49 -75 -10 0 -38
-19 -61 -42 -27 -27 -45 -38 -47 -30 -7 18 -23 4 -23 -18 0 -13 9 -22 26 -26
21 -5 31 -2 46 17 17 22 19 23 32 7 7 -10 19 -18 27 -18 8 0 21 -5 29 -11 11
-8 9 -9 -10 -4 -20 6 -23 5 -13 -5 10 -10 5 -17 -24 -32 -19 -11 -42 -17 -50
-14 -8 3 -12 2 -9 -3 5 -7 -13 -16 -104 -53 -70 -29 -207 -72 -310 -98 -199
-50 -302 -61 -580 -64 -140 -2 -193 -1 -117 1 79 2 137 8 137 13 0 6 19 10 43
10 23 0 58 4 76 10 24 7 39 6 47 -1 8 -6 19 -9 26 -6 17 6 -34 27 -70 28 -20
1 -17 4 13 9 29 5 33 8 15 10 -18 1 -12 5 25 15 l50 14 -45 -4 -45 -4 45 14
45 14 -75 -7 c-41 -4 -199 -7 -350 -6 -215 0 -296 4 -370 18 -52 9 -98 22
-102 29 -4 7 -7 239 -6 517 1 313 4 459 8 385 4 -66 8 -181 9 -255 1 -74 5
-153 9 -175 6 -37 7 -34 13 35 3 41 6 -45 7 -192 1 -147 6 -269 11 -272 43
-27 490 -45 656 -27 531 58 982 334 1287 790 184 276 267 526 329 996 10 77
17 114 15 82 -4 -81 10 -81 18 1 18 194 -2 592 -40 792 -132 704 -480 1222
-989 1475 -193 96 -314 134 -540 172 -91 15 -168 18 -437 18 -179 0 -330 -3
-334 -7 -3 -4 1 -19 10 -32 14 -23 16 -105 16 -873 l0 -847 -25 34 c-25 33
-25 38 -27 229 0 117 -4 178 -8 151 -5 -33 -7 -16 -8 66 -2 98 -4 112 -20 116
-11 3 -23 22 -30 47 -7 22 -19 41 -26 41 -7 0 -18 10 -24 23 l-11 22 0 -22
c-1 -34 -24 -27 -43 12 -13 27 -14 36 -4 44 10 9 13 32 7 60 -1 2 -8 -2 -16
-9 -11 -9 -15 -35 -15 -102 0 -65 -4 -95 -16 -114 -9 -13 -19 -38 -23 -55 -3
-16 -10 -29 -15 -29 -5 1 -13 -4 -17 -12 -7 -11 -11 -10 -19 2 -8 13 -10 12
-10 -4 0 -18 -2 -18 -25 4 -14 13 -25 29 -25 36 0 6 -7 14 -15 18 -13 5 -15
68 -16 478 0 260 -3 505 -7 544 l-7 70 42 3 c25 1 43 -3 43 -9 0 -5 -9 -10
-20 -10 -11 0 -20 -4 -20 -10 0 -5 11 -10 24 -10 35 0 42 -18 9 -23 -23 -3
-21 -4 9 -6 32 -1 39 -5 44 -28 4 -16 10 -32 14 -38 4 -5 11 -30 15 -55 4 -25
14 -53 22 -62 10 -11 15 -35 15 -62 -1 -25 3 -48 7 -51 11 -6 25 24 22 46 -1
9 6 19 15 23 13 5 14 9 4 21 -10 12 -7 15 12 20 13 4 30 5 37 3 12 -3 41 62
41 95 0 24 16 21 26 -5 6 -16 10 4 13 67 l5 90 6 -90 6 -90 2 111 c1 81 -2
119 -13 140 -10 19 -11 32 -4 40 7 8 6 15 -3 21 -8 5 9 10 47 14 l60 6 -65 3
-65 4 70 5 70 6 0 38 1 37 -261 -1 c-227 -2 -246 -3 -151 -10 60 -5 111 -11
114 -14 3 -3 -51 -5 -121 -4 -102 1 -129 -2 -142 -15 -14 -14 -13 -17 15 -31
16 -8 30 -17 30 -19 0 -8 -40 2 -54 13 -13 11 -13 9 -3 -13 9 -19 17 -24 32
-20 17 4 18 3 5 -6 -11 -9 -12 -13 -2 -17 6 -2 12 -10 12 -16 0 -6 -15 3 -32
20 -93 88 -260 139 -508 156 -19 1 -34 7 -33 12 2 6 202 12 563 15 l561 5 -1
500 c0 275 -2 547 -5 605 -4 76 -2 99 5 85 24 -46 0 138 -29 223 -40 120 -74
176 -152 254 -85 86 -193 140 -323 162 -92 16 -108 22 -89 34 19 12 1333 8
1333 -4z m-873 -2126 c-3 -8 -6 -5 -6 6 -1 11 2 17 5 13 3 -3 4 -12 1 -19z
m-181 -1326 c8 -7 14 -16 14 -20 -1 -16 -60 60 -60 76 1 11 6 7 17 -13 9 -16
22 -35 29 -43z m2854 -1189 c0 -7 -4 -13 -10 -13 -5 0 -10 12 -10 28 0 21 2
24 10 12 5 -8 10 -21 10 -27z m60 -13 c12 -8 11 -10 -7 -10 -12 0 -25 5 -28
10 -8 13 15 13 35 0z m-130 -40 c0 -5 -5 -10 -11 -10 -5 0 -7 5 -4 10 3 6 8
10 11 10 2 0 4 -4 4 -10z m-2960 -325 c3 -167 15 -401 19 -370 2 11 9 -14 16
-55 9 -47 10 -79 4 -84 -11 -12 -12 -76 0 -76 4 0 6 -37 2 -82 -3 -46 -6 -104
-6 -130 0 -25 -3 -42 -6 -36 -12 18 -18 -22 -29 -187 -5 -88 -13 -172 -16
-187 -3 -17 -1 -28 5 -28 6 0 11 -4 11 -10 0 -5 -6 -7 -13 -4 -8 3 -17 -12
-25 -43 -8 -27 -17 -56 -23 -65 -7 -13 -5 -16 6 -12 18 7 31 -37 18 -61 -9
-16 -11 -16 -26 0 -10 9 -17 13 -17 8 0 -5 5 -14 12 -21 6 -6 8 -15 4 -19 -4
-5 -14 1 -22 11 -10 15 -14 16 -17 5 -2 -8 -9 -29 -15 -46 -9 -30 -8 -33 11
-35 12 -1 -48 -5 -133 -8 -85 -4 -188 -11 -227 -15 -61 -7 -73 -5 -73 7 0 10
24 20 83 32 106 23 218 68 278 112 66 48 105 129 119 249 6 50 18 105 26 123
12 27 14 137 15 635 1 331 5 589 9 572 4 -16 9 -97 10 -180z m3287 153 c-3 -8
-6 -5 -6 6 -1 11 2 17 5 13 3 -3 4 -12 1 -19z m-557 -38 c0 -5 -5 -10 -11 -10
-5 0 -7 5 -4 10 3 6 8 10 11 10 2 0 4 -4 4 -10z m480 -135 c0 -11 -73 -191
-91 -225 -24 -46 -24 -30 0 24 24 51 49 117 64 169 6 20 15 37 19 37 4 0 8 -2
8 -5z m-124 -297 c-18 -26 -22 -17 -5 14 6 11 13 17 16 15 3 -3 -2 -16 -11
-29z"/>
<path d="M6491 3384 c0 -11 3 -14 6 -6 3 7 2 16 -1 19 -3 4 -6 -2 -5 -13z"/>
<path d="M6478 6673 c12 -2 30 -2 40 0 9 3 -1 5 -23 4 -22 0 -30 -2 -17 -4z"/>
<path d="M6498 6653 c6 -2 18 -2 25 0 6 3 1 5 -13 5 -14 0 -19 -2 -12 -5z"/>
<path d="M6245 6640 c-3 -5 -2 -10 4 -10 5 0 13 5 16 10 3 6 2 10 -4 10 -5 0
-13 -4 -16 -10z"/>
<path d="M6303 6643 c9 -2 25 -2 35 0 9 3 1 5 -18 5 -19 0 -27 -2 -17 -5z"/>
<path d="M6378 6643 c7 -3 16 -2 19 1 4 3 -2 6 -13 5 -11 0 -14 -3 -6 -6z"/>
<path d="M5951 6324 c0 -11 3 -14 6 -6 3 7 2 16 -1 19 -3 4 -6 -2 -5 -13z"/>
<path d="M6103 6010 c0 -25 2 -35 4 -22 2 12 2 32 0 45 -2 12 -4 2 -4 -23z"/>
<path d="M6120 5936 c0 -26 -5 -46 -12 -49 -10 -4 -10 -7 -1 -18 10 -10 15 -6
28 24 20 47 20 87 0 87 -11 0 -15 -12 -15 -44z"/>
<path d="M6087 5733 c-4 -3 -7 -16 -7 -27 0 -17 2 -18 10 -6 6 10 10 11 10 3
0 -7 6 -13 14 -13 16 0 25 19 19 38 -5 13 -35 17 -46 5z"/>
<path d="M6075 5620 c-4 -6 -3 -16 3 -22 6 -6 12 -6 17 2 4 6 3 16 -3 22 -6 6
-12 6 -17 -2z"/>
<path d="M6223 5420 c0 -25 2 -35 4 -22 2 12 2 32 0 45 -2 12 -4 2 -4 -23z"/>
<path d="M5940 5400 c0 -5 5 -10 11 -10 5 0 7 5 4 10 -3 6 -8 10 -11 10 -2 0
-4 -4 -4 -10z"/>
<path d="M9080 4295 c-1 -5 -3 -17 -5 -26 -1 -9 1 -22 6 -30 13 -22 24 18 11
44 -6 12 -11 18 -12 12z"/>
<path d="M8571 4074 c0 -11 3 -14 6 -6 3 7 2 16 -1 19 -3 4 -6 -2 -5 -13z"/>
<path d="M9165 3975 c-4 -25 -5 -48 -2 -51 2 -3 8 16 12 41 3 26 4 49 2 52 -3
3 -9 -16 -12 -42z"/>
<path d="M9122 3910 c0 -14 2 -19 5 -12 2 6 2 18 0 25 -3 6 -5 1 -5 -13z"/>
<path d="M7794 2396 c-6 -17 2 -36 17 -36 12 0 12 37 -1 45 -6 3 -13 -1 -16
-9z"/>
<path d="M7285 2350 c-13 -5 -14 -9 -5 -9 8 0 24 4 35 9 13 5 14 9 5 9 -8 0
-24 -4 -35 -9z"/>
<path d="M7815 2350 c-25 -11 1 -11 35 0 20 6 21 8 5 8 -11 0 -29 -3 -40 -8z"/>
<path d="M7198 2323 c7 -3 16 -2 19 1 4 3 -2 6 -13 5 -11 0 -14 -3 -6 -6z"/>
<path d="M7103 2183 c9 -2 25 -2 35 0 9 3 1 5 -18 5 -19 0 -27 -2 -17 -5z"/>
<path d="M5873 3065 c0 -38 2 -53 4 -32 2 20 2 52 0 70 -2 17 -4 1 -4 -38z"/>
<path d="M5873 2885 c0 -27 2 -38 4 -22 2 15 2 37 0 50 -2 12 -4 0 -4 -28z"/>
<path d="M5719 2203 l-24 -28 28 24 c15 14 27 26 27 28 0 8 -8 1 -31 -24z"/>
<path d="M9669 8886 c365 -460 711 -1113 899 -1697 196 -607 276 -1118 275
-1744 -1 -486 -51 -880 -172 -1355 -194 -765 -584 -1539 -1051 -2085 -47 -55
-107 -127 -135 -160 -81 -99 -462 -473 -585 -576 -145 -121 -277 -223 -360
-280 -36 -24 -67 -47 -70 -51 -6 -8 -288 -188 -295 -188 -2 0 -35 -19 -72 -42
-38 -23 -160 -88 -273 -145 -113 -56 -200 -103 -195 -103 16 0 399 191 515
257 675 384 1300 951 1747 1586 184 261 309 473 452 768 113 234 178 389 256
621 534 1567 329 3291 -557 4681 -125 196 -414 587 -433 587 -3 0 21 -33 54
-74z"/>
<path d="M750 8208 c-121 -205 -287 -549 -372 -768 -462 -1198 -500 -2447
-112 -3665 258 -810 714 -1556 1323 -2166 349 -349 735 -648 1116 -867 249
-143 764 -386 781 -369 3 2 -55 30 -128 61 -165 72 -432 209 -603 311 -146 86
-398 253 -432 284 -12 12 -25 21 -28 21 -3 0 -11 5 -18 10 -7 6 -43 34 -82 62
-73 54 -267 214 -323 266 -18 17 -32 35 -32 41 0 6 -5 11 -11 11 -6 0 -24 11
-41 25 -16 14 -25 25 -19 25 6 0 18 -8 28 -18 10 -11 26 -22 36 -25 9 -4 17
-13 17 -22 0 -8 6 -15 13 -15 14 0 77 -57 77 -71 0 -5 5 -9 10 -9 7 0 7 7 0
21 -7 11 -9 23 -6 26 3 3 11 -7 18 -24 7 -16 18 -28 25 -26 6 2 14 -1 18 -6 3
-7 0 -8 -9 -5 -9 3 -16 3 -16 -1 0 -8 23 -32 30 -31 3 0 14 -7 25 -17 11 -9
58 -45 105 -81 47 -35 94 -73 105 -83 11 -10 29 -18 40 -19 48 -3 55 -5 55
-14 0 -5 -8 -10 -17 -10 -17 -1 -17 -1 -1 -11 19 -11 46 -1 68 25 7 9 23 16
36 16 13 0 24 5 24 11 0 5 4 8 9 5 5 -3 11 1 14 8 7 18 -58 70 -75 60 -7 -4
-8 -3 -4 4 4 7 4 12 -1 12 -4 0 -33 20 -63 45 -50 41 -56 43 -71 29 -13 -11
-23 -13 -35 -6 -11 6 -13 12 -6 16 6 4 8 14 5 24 -6 15 -5 15 11 3 13 -11 14
-16 4 -22 -7 -4 -9 -11 -5 -16 5 -4 12 -1 17 7 10 16 -16 53 -31 44 -5 -3 -9
0 -9 5 0 6 -7 11 -16 11 -8 0 -13 4 -9 9 3 5 -9 20 -27 32 -18 13 -48 38 -67
56 -19 18 -43 33 -53 33 -11 0 -17 4 -14 9 8 12 -29 43 -39 34 -4 -5 -5 -3 -1
4 7 13 -52 59 -71 55 -6 -1 -15 3 -19 9 -4 8 -3 9 4 5 7 -4 12 -3 12 1 0 13
-160 158 -172 155 -5 -1 -7 2 -3 8 4 6 -18 36 -49 66 -30 30 -97 103 -148 162
-51 59 -97 106 -103 104 -5 -2 -7 0 -3 3 13 13 -42 74 -60 68 -15 -4 -15 -3
-2 6 14 10 7 16 -13 12 -5 -1 -6 3 -2 8 3 6 -14 34 -37 63 -24 29 -58 74 -77
100 -19 26 -38 45 -42 42 -5 -3 -7 1 -4 8 3 7 -5 24 -17 39 -13 14 -28 34 -34
45 -12 20 -30 18 -27 -5 1 -9 -2 -10 -10 -2 -7 7 -6 15 4 27 11 13 11 18 2 21
-7 3 -13 9 -13 15 0 15 -62 108 -72 108 -4 0 -7 3 -7 8 3 18 -2 33 -9 28 -13
-8 -53 24 -46 35 3 6 11 5 21 -3 8 -6 2 9 -13 34 -15 26 -32 44 -38 41 -5 -3
-6 -1 -2 5 9 15 -55 124 -69 118 -5 -2 -9 -10 -9 -18 1 -13 -5 -14 -32 -6 -19
5 -39 6 -45 2 -6 -4 -15 0 -20 7 -8 12 -10 12 -18 0 -7 -11 -14 -9 -36 15
l-27 29 21 -29 c12 -16 21 -34 21 -40 0 -7 10 -12 23 -13 12 0 16 1 10 4 -15
5 -18 23 -4 23 15 0 21 -30 11 -51 -8 -15 -4 -31 18 -74 16 -30 33 -51 37 -47
5 4 6 2 2 -3 -7 -14 34 -79 53 -83 8 -2 22 -10 30 -19 13 -14 13 -15 -2 -10
-23 8 -23 1 2 -25 10 -12 17 -24 15 -28 -3 -4 9 -25 25 -45 17 -21 30 -41 30
-46 0 -5 14 -28 30 -51 17 -24 43 -61 58 -83 14 -22 52 -72 84 -111 32 -39 58
-76 58 -82 0 -7 5 -12 10 -12 6 0 10 -5 10 -11 0 -8 -5 -8 -15 1 -8 7 -15 19
-15 26 0 8 -4 14 -8 14 -8 0 -70 77 -112 140 -14 20 -47 67 -74 103 -26 36
-47 69 -46 73 1 4 -2 10 -7 13 -11 7 -116 167 -146 222 -12 22 -26 48 -32 57
-180 308 -318 611 -450 997 -114 331 -217 811 -254 1190 -55 560 -21 1143 100
1700 113 518 332 1109 558 1505 71 123 101 180 97 180 -3 0 -32 -46 -66 -102z
m128 -5343 c-3 -3 -9 2 -12 12 -6 14 -5 15 5 6 7 -7 10 -15 7 -18z m76 -141
c3 -8 2 -12 -4 -9 -6 3 -10 10 -10 16 0 14 7 11 14 -7z m-112 -36 c-6 -6 -7 0
-4 19 5 21 7 23 10 9 2 -10 0 -22 -6 -28z m162 -264 c5 -14 4 -15 -9 -4 -17
14 -19 20 -6 20 5 0 12 -7 15 -16z m302 -439 c9 -8 11 -15 6 -15 -5 0 -15 7
-22 15 -7 8 -9 15 -6 15 4 0 14 -7 22 -15z m115 -132 c13 -16 12 -17 -3 -4
-10 7 -18 15 -18 17 0 8 8 3 21 -13z m54 -63 l30 -35 -32 29 c-18 17 -33 34
-33 40 0 5 1 7 3 5 1 -2 16 -20 32 -39z m130 -130 c3 -5 1 -10 -4 -10 -6 0
-11 5 -11 10 0 6 2 10 4 10 3 0 8 -4 11 -10z m71 -77 c-7 -7 -26 7 -26 19 0 6
6 6 15 -2 9 -7 13 -15 11 -17z m64 -30 c12 10 12 9 1 -5 -11 -15 -11 -19 3
-24 9 -3 16 -10 16 -15 0 -19 -19 -7 -46 29 -17 23 -20 30 -8 20 16 -14 23
-15 34 -5z m200 -14 c0 -6 -4 -7 -10 -4 -5 3 -10 11 -10 16 0 6 5 7 10 4 6 -3
10 -11 10 -16z m136 -111 c19 -23 19 -23 -1 -7 -11 10 -29 19 -40 22 -19 4
-19 5 1 6 11 0 29 -9 40 -21z m-19 -14 c-3 -3 -12 -4 -19 -1 -8 3 -5 6 6 6 11
1 17 -2 13 -5z m103 -59 c11 -13 10 -14 -5 -9 -14 6 -16 4 -10 -6 5 -8 4 -11
-3 -6 -6 4 -9 13 -5 21 7 19 8 19 23 0z m-45 -115 c3 -6 -1 -7 -9 -4 -18 7
-21 14 -7 14 6 0 13 -4 16 -10z m212 -25 c-3 -7 0 -18 6 -24 11 -11 9 -12 -25
-15 -8 -1 -13 13 -14 36 -1 33 1 36 18 27 11 -6 17 -16 15 -24z m53 -35 c0 -5
-2 -10 -4 -10 -3 0 -8 5 -11 10 -3 6 -1 10 4 10 6 0 11 -4 11 -10z m-150 -25
c-7 -9 -15 -13 -17 -11 -7 7 7 26 19 26 6 0 6 -6 -2 -15z m180 -41 c0 -3 -9
-14 -20 -26 -17 -19 -20 -19 -20 -5 0 9 5 17 11 17 6 0 9 7 6 14 -4 10 -1 13
9 9 7 -3 14 -7 14 -9z"/>
<path d="M2300 1220 c0 -5 5 -10 10 -10 6 0 10 5 10 10 0 6 -4 10 -10 10 -5 0
-10 -4 -10 -10z"/>
<path d="M2300 1190 c0 -5 5 -10 10 -10 6 0 10 5 10 10 0 6 -4 10 -10 10 -5 0
-10 -4 -10 -10z"/>
<path d="M10711 4414 c0 -11 3 -14 6 -6 3 7 2 16 -1 19 -3 4 -6 -2 -5 -13z"/>
<path d="M10591 4354 c0 -11 3 -14 6 -6 3 7 2 16 -1 19 -3 4 -6 -2 -5 -13z"/>
<path d="M10651 4144 c0 -11 3 -14 6 -6 3 7 2 16 -1 19 -3 4 -6 -2 -5 -13z"/>
<path d="M10490 4116 c-15 -42 -11 -55 6 -17 8 19 12 36 9 39 -2 3 -9 -7 -15
-22z"/>
<path d="M10472 4035 c0 -16 2 -22 5 -12 2 9 2 23 0 30 -3 6 -5 -1 -5 -18z"/>
<path d="M10611 3993 c-1 -6 -4 -20 -7 -30 -5 -17 -5 -17 6 0 6 10 9 23 6 30
-3 9 -5 9 -5 0z"/>
<path d="M10530 3908 c0 -9 5 -20 10 -23 6 -3 11 -16 11 -28 1 -14 3 -16 6 -6
2 8 -3 28 -12 45 -9 18 -15 23 -15 12z"/>
<path d="M10427 3888 c-3 -13 -9 -34 -13 -47 -5 -17 -4 -22 4 -17 7 4 12 16
12 27 0 11 4 18 9 15 4 -3 6 6 3 19 -5 31 -8 31 -15 3z"/>
<path d="M10396 3783 c-6 -14 -5 -15 5 -6 7 7 10 15 7 18 -3 3 -9 -2 -12 -12z"/>
<path d="M10545 3769 c-4 -6 -5 -12 -2 -15 2 -3 7 2 10 11 7 17 1 20 -8 4z"/>
<path d="M10356 3674 c-3 -9 -2 -22 2 -31 6 -10 9 -5 9 16 0 35 -2 38 -11 15z"/>
<path d="M10341 3614 c0 -11 3 -14 6 -6 3 7 2 16 -1 19 -3 4 -6 -2 -5 -13z"/>
<path d="M10451 3614 c0 -11 3 -14 6 -6 3 7 2 16 -1 19 -3 4 -6 -2 -5 -13z"/>
<path d="M10491 3614 c0 -11 3 -14 6 -6 3 7 2 16 -1 19 -3 4 -6 -2 -5 -13z"/>
<path d="M10319 3564 c-5 -15 -8 -29 -5 -31 2 -2 8 10 14 26 13 38 5 41 -9 5z"/>
<path d="M10459 3575 c-4 -54 -9 -76 -29 -114 -11 -23 -18 -41 -15 -41 10 0
54 103 48 113 -3 5 0 13 7 17 9 6 10 12 1 26 -10 18 -10 18 -12 -1z"/>
<path d="M10276 3463 c-6 -14 -5 -15 5 -6 7 7 10 15 7 18 -3 3 -9 -2 -12 -12z"/>
<path d="M10256 3412 c-18 -35 -20 -46 -7 -38 5 4 12 0 15 -6 3 -7 4 0 1 15
-4 17 -2 26 4 23 14 -9 25 14 13 26 -7 7 -15 1 -26 -20z"/>
<path d="M10364 3413 c4 -6 -2 -14 -11 -16 -14 -4 -13 -5 5 -6 12 0 22 -7 22
-13 0 -7 5 -5 11 5 6 10 8 21 5 24 -3 4 -6 0 -6 -7 0 -9 -5 -7 -16 6 -8 10
-13 14 -10 7z"/>
<path d="M10235 3350 c3 -5 8 -10 11 -10 2 0 4 5 4 10 0 6 -5 10 -11 10 -5 0
-7 -4 -4 -10z"/>
<path d="M10381 3344 c0 -11 3 -14 6 -6 3 7 2 16 -1 19 -3 4 -6 -2 -5 -13z"/>
<path d="M10371 3304 c0 -11 3 -14 6 -6 3 7 2 16 -1 19 -3 4 -6 -2 -5 -13z"/>
<path d="M10205 3300 c-3 -5 -3 -10 1 -10 3 0 -1 -11 -10 -24 -9 -14 -12 -27
-7 -30 5 -3 12 5 15 19 4 14 11 25 16 25 6 0 10 7 10 15 0 17 -16 20 -25 5z"/>
<path d="M680 3260 c0 -5 5 -10 11 -10 5 0 7 5 4 10 -3 6 -8 10 -11 10 -2 0
-4 -4 -4 -10z"/>
<path d="M10254 3263 c-6 -2 -9 -15 -6 -29 6 -30 34 -29 38 3 4 21 -11 33 -32
26z"/>
<path d="M10304 3242 c7 -35 -3 -52 -29 -52 -27 0 -39 -26 -29 -64 4 -19 2
-28 -10 -32 -9 -3 -16 -14 -17 -23 0 -10 -4 -7 -10 9 -6 13 -15 28 -22 32 -6
4 -8 11 -3 15 5 4 11 2 13 -4 7 -19 20 -16 26 7 4 16 0 20 -18 20 -13 0 -31 3
-40 7 -15 5 -16 3 -6 -15 11 -20 9 -22 -14 -22 -23 0 -25 -4 -24 -32 3 -35
-15 -78 -32 -78 -6 0 -3 10 5 22 9 12 16 32 16 43 -1 11 -10 -1 -22 -30 -12
-27 -25 -52 -29 -55 -17 -13 -30 -55 -25 -81 3 -16 1 -31 -6 -35 -8 -5 -9 -2
-5 9 3 10 2 17 -3 17 -13 0 -32 -38 -25 -50 3 -6 0 -10 -7 -10 -7 0 -18 -8
-23 -19 -6 -10 -18 -33 -28 -50 -14 -25 -15 -36 -6 -52 6 -11 8 -24 4 -27 -3
-3 -8 4 -12 16 -3 12 -10 19 -15 16 -5 -3 -7 -12 -4 -20 3 -8 0 -13 -7 -11 -7
1 -12 -9 -12 -25 1 -21 -2 -24 -12 -16 -7 6 -13 6 -13 1 0 -9 -130 -218 -150
-241 -6 -7 -8 -17 -4 -24 4 -7 3 -8 -4 -4 -6 3 -16 -3 -22 -14 -6 -12 -20 -30
-31 -41 -11 -11 -17 -25 -13 -31 4 -6 3 -8 -2 -5 -9 5 -57 -55 -55 -68 1 -3
-12 -17 -29 -32 -18 -15 -29 -32 -26 -40 3 -8 2 -12 -3 -9 -11 7 -64 -61 -56
-73 3 -5 0 -13 -6 -17 -8 -4 -9 -3 -5 4 4 7 4 12 -1 11 -13 -1 -66 -69 -66
-84 0 -8 -3 -12 -7 -10 -14 9 -51 -42 -44 -61 4 -14 3 -15 -4 -6 -7 10 -19 2
-50 -34 -23 -25 -39 -51 -35 -57 3 -5 2 -7 -4 -4 -5 3 -70 -55 -143 -129 -74
-73 -138 -134 -142 -134 -4 0 -8 -4 -8 -10 0 -5 8 -6 17 -3 15 6 16 5 3 -9
-11 -11 -17 -12 -22 -4 -7 10 -30 -8 -118 -94 -14 -14 -44 -38 -65 -54 -22
-16 -52 -42 -66 -57 -15 -15 -29 -26 -32 -23 -2 3 -14 -6 -25 -20 -10 -14 -21
-23 -24 -21 -3 3 -13 -5 -24 -17 -12 -13 -14 -18 -4 -13 8 4 12 5 8 0 -4 -4
-3 -14 3 -21 7 -8 6 -14 -2 -20 -7 -4 -9 -3 -5 4 3 6 -3 16 -14 22 -16 9 -22
8 -26 -5 -3 -8 -10 -15 -15 -15 -12 0 -105 -71 -101 -77 2 -3 0 -8 -4 -11 -4
-4 -4 -1 0 5 12 21 -4 15 -39 -14 -18 -16 -51 -39 -74 -52 -22 -14 -37 -29
-34 -34 3 -6 1 -7 -5 -3 -7 4 -27 -4 -44 -17 -18 -13 -55 -36 -81 -51 -42 -24
-46 -30 -35 -43 12 -14 11 -15 -9 -5 -20 11 -45 0 -26 -11 5 -2 2 -2 -6 0 -8
2 -58 -22 -113 -53 -54 -30 -144 -78 -199 -106 -55 -27 -98 -52 -95 -56 4 -3
12 0 18 6 16 16 25 15 31 -2 4 -11 -3 -13 -31 -11 -38 4 -122 -21 -122 -36 0
-5 -6 -9 -14 -9 -8 0 -31 -9 -53 -19 -21 -11 -64 -29 -95 -41 -32 -12 -58 -28
-58 -35 0 -7 -7 -15 -14 -18 -11 -4 -13 -1 -9 10 5 12 2 13 -13 5 -10 -5 -55
-22 -99 -37 -44 -14 -89 -31 -100 -36 -28 -12 -187 -62 -267 -84 -38 -10 -68
-22 -68 -27 0 -5 -4 -7 -9 -4 -15 10 -122 -17 -108 -27 8 -6 5 -7 -7 -3 -30
10 -128 -15 -122 -31 3 -7 -1 -13 -10 -13 -8 0 -12 5 -9 10 8 13 -8 12 -80 -4
-33 -8 -86 -17 -117 -21 -32 -4 -55 -11 -52 -16 3 -5 -8 -7 -23 -5 -15 2 -22
1 -15 -1 21 -7 9 -37 -17 -43 -13 -3 -28 -14 -32 -25 -4 -11 -8 -14 -8 -7 -1
10 -5 10 -17 -2 -8 -9 -20 -16 -25 -16 -20 0 -7 -20 14 -21 12 0 31 -5 42 -10
l20 -9 -20 2 c-31 2 -95 -13 -95 -23 0 -10 111 0 120 10 3 3 23 6 45 6 22 0
67 5 100 11 168 33 236 48 302 65 39 10 78 19 86 19 13 0 128 34 294 87 28 9
50 20 47 25 -3 4 1 5 9 2 7 -2 27 1 43 7 16 7 31 13 34 13 24 4 118 41 115 45
-2 3 7 6 18 7 12 1 53 13 92 27 38 15 78 24 89 21 11 -4 16 -2 12 4 -3 6 15
20 41 32 27 13 103 49 169 81 67 33 126 59 132 59 5 0 15 7 22 15 7 9 15 13
18 11 2 -3 22 6 43 20 21 13 43 24 49 24 6 0 8 5 4 12 -4 6 -3 8 3 5 6 -4 30
4 54 18 24 13 62 33 85 44 22 12 50 30 62 41 11 11 25 20 30 20 4 0 39 21 77
46 39 25 83 52 98 60 15 8 25 19 22 24 -4 6 1 10 10 10 9 0 31 11 49 25 18 14
36 25 39 25 6 0 21 11 61 45 7 6 21 15 31 22 11 6 19 16 17 23 -1 6 2 9 7 5
10 -6 115 69 174 123 20 19 24 28 15 35 -9 6 -7 7 5 3 21 -7 90 41 81 55 -3 5
2 6 10 3 19 -7 22 12 4 20 -8 3 -6 4 4 3 9 -1 40 18 68 43 62 52 230 216 230
224 0 3 -8 3 -17 0 -14 -5 -15 -4 -4 4 8 6 19 8 25 6 16 -5 49 23 41 35 -3 6
1 14 11 18 19 7 104 86 104 96 0 3 27 34 60 67 36 36 58 66 54 73 -4 7 -4 9 0
5 7 -6 43 31 128 133 72 85 88 107 88 116 0 17 37 53 45 45 5 -4 6 0 3 9 -4 9
2 20 14 28 13 8 17 19 14 34 -3 12 -3 16 0 10 3 -7 9 -13 14 -13 9 0 36 61 32
73 -1 5 2 6 7 3 14 -9 29 23 24 48 -4 15 -2 17 5 7 11 -15 14 -12 93 111 27
42 49 81 49 86 0 6 3 12 8 14 4 2 20 23 36 47 24 38 26 47 17 70 -10 23 -10
24 3 8 14 -18 15 -18 26 3 6 12 9 28 6 36 -3 9 -1 12 4 9 6 -3 10 0 10 8 0 8
9 22 20 32 11 10 20 23 20 29 0 6 -5 4 -10 -4 -8 -13 -10 -13 -10 2 0 9 5 20
10 23 6 3 11 16 11 28 1 16 3 14 8 -8 l7 -30 11 33 c7 18 21 46 32 61 11 16
19 30 17 32 -2 2 -6 17 -10 33 -6 26 -5 28 8 17 9 -7 13 -18 9 -25 -3 -6 0 -6
8 1 7 7 12 29 12 50 -1 25 2 32 8 22 7 -9 8 -5 3 14 -5 21 -3 26 8 22 8 -3 21
7 33 27 18 31 18 32 0 18 -17 -14 -17 -13 -10 10 10 34 14 37 26 20 11 -17 2
32 -13 65 -8 18 -8 17 -4 -3z m-131 -149 c-7 -2 -21 -2 -30 0 -10 3 -4 5 12 5
17 0 24 -2 18 -5z m-86 -115 c-3 -8 -6 -5 -6 6 -1 11 2 17 5 13 3 -3 4 -12 1
-19z m-32 -47 c3 -5 1 -12 -5 -16 -5 -3 -10 1 -10 9 0 18 6 21 15 7z m82 -53
c-3 -8 -6 -5 -6 6 -1 11 2 17 5 13 3 -3 4 -12 1 -19z m-42 -58 c3 -5 -1 -10
-10 -10 -9 0 -13 5 -10 10 3 6 8 10 10 10 2 0 7 -4 10 -10z m-143 -75 c3 -13
1 -22 -3 -19 -9 5 -13 44 -5 44 2 0 6 -11 8 -25z m51 -142 c-4 -10 -9 -11 -19
-2 -18 15 -18 15 5 15 11 0 17 -5 14 -13z m-137 -8 c-8 -8 -18 -15 -22 -15 -3
0 -1 7 6 15 7 8 17 15 22 15 5 0 3 -7 -6 -15z m122 -30 c-3 -3 -9 2 -12 12 -6
14 -5 15 5 6 7 -7 10 -15 7 -18z m-168 -25 c0 -5 -5 -10 -11 -10 -5 0 -7 5 -4
10 3 6 8 10 11 10 2 0 4 -4 4 -10z m-181 -296 c7 5 9 1 5 -8 -7 -19 -24 -21
-25 -3 0 10 -2 10 -6 0 -2 -7 -9 -13 -14 -13 -5 0 -4 9 3 20 8 12 15 15 19 8
4 -6 12 -8 18 -4z m-149 -154 c0 -5 -5 -10 -11 -10 -5 0 -7 5 -4 10 3 6 8 10
11 10 2 0 4 -4 4 -10z m-530 -597 c0 -3 -7 -3 -15 0 -8 4 -17 2 -20 -3 -4 -6
-11 -10 -18 -10 -6 0 -2 6 8 14 17 12 45 12 45 -1z m-160 -277 c0 -2 -7 -7
-16 -10 -8 -3 -12 -2 -9 4 6 10 25 14 25 6z m-230 -36 c-24 -15 -36 -11 -14 4
10 8 21 12 24 10 2 -3 -2 -9 -10 -14z m-925 -540 c-3 -5 -12 -10 -18 -10 -7 0
-6 4 3 10 19 12 23 12 15 0z m58 -7 c-7 -2 -19 -2 -25 0 -7 3 -2 5 12 5 14 0
19 -2 13 -5z m-698 -253 c-11 -5 -29 -8 -40 -8 -16 0 -15 2 5 8 34 11 60 11
35 0z m-145 -44 c0 -11 -19 -15 -25 -6 -3 5 1 10 9 10 9 0 16 -2 16 -4z m-253
-62 c-3 -3 -12 -4 -19 -1 -8 3 -5 6 6 6 11 1 17 -2 13 -5z m-177 -44 c-8 -6
-22 -10 -30 -10 -8 0 -4 6 10 13 27 15 44 12 20 -3z m118 3 c-10 -2 -28 -2
-40 0 -13 2 -5 4 17 4 22 1 32 -1 23 -4z m-235 -120 c-13 -2 -35 -2 -50 0 -16
2 -5 4 22 4 28 0 40 -2 28 -4z"/>
<path d="M10167 3213 c-4 -3 -7 -11 -7 -17 0 -6 5 -5 12 2 6 6 9 14 7 17 -3 3
-9 2 -12 -2z"/>
<path d="M10183 3194 c-6 -13 -7 -24 -2 -24 5 0 9 4 9 10 0 5 7 7 15 4 18 -7
19 3 2 20 -10 11 -15 9 -24 -10z"/>
<path d="M730 3157 c0 -4 6 -16 13 -27 10 -17 9 -22 -3 -30 -8 -5 -11 -12 -8
-16 4 -3 14 0 22 8 13 13 12 18 -5 44 -10 16 -19 26 -19 21z"/>
<path d="M770 3078 c0 -9 7 -22 17 -29 15 -13 15 -12 3 11 -17 34 -20 36 -20
18z"/>
<path d="M795 3019 c-4 -6 -5 -12 -2 -15 2 -3 7 2 10 11 7 17 1 20 -8 4z"/>
<path d="M640 3001 c0 -6 4 -13 10 -16 6 -3 7 1 4 9 -7 18 -14 21 -14 7z"/>
<path d="M810 2994 c0 -6 5 -15 12 -22 8 -8 8 -15 -1 -26 -8 -10 -9 -16 -1
-21 5 -3 10 2 10 12 1 14 4 13 15 -7 9 -16 14 -19 15 -9 0 8 -11 30 -25 49
-14 19 -25 29 -25 24z"/>
<path d="M781 2974 c0 -11 3 -14 6 -6 3 7 2 16 -1 19 -3 4 -6 -2 -5 -13z"/>
<path d="M2493 1105 c0 -8 4 -12 9 -9 5 3 6 10 3 15 -9 13 -12 11 -12 -6z"/>
<path d="M2290 1070 c0 -5 5 -10 10 -10 6 0 10 5 10 10 0 6 -4 10 -10 10 -5 0
-10 -4 -10 -10z"/>
<path d="M2350 1030 c0 -5 5 -10 10 -10 6 0 10 5 10 10 0 6 -4 10 -10 10 -5 0
-10 -4 -10 -10z"/>
<path d="M2550 1030 c-9 -6 -10 -10 -3 -10 6 0 15 5 18 10 8 12 4 12 -15 0z"/>
<path d="M2603 1025 c0 -8 4 -12 9 -9 5 3 6 10 3 15 -9 13 -12 11 -12 -6z"/>
<path d="M3501 367 c8 -9 141 -58 146 -54 2 2 -25 14 -59 27 -92 33 -93 34
-87 27z"/>
<path d="M6155 200 c3 -5 12 -10 20 -10 8 0 17 5 20 10 4 6 -5 10 -20 10 -15
0 -24 -4 -20 -10z"/>
<path d="M6108 193 c7 -3 16 -2 19 1 4 3 -2 6 -13 5 -11 0 -14 -3 -6 -6z"/>
<path d="M5955 180 l-50 -7 50 -1 c28 0 59 3 70 8 l20 9 -20 -1 c-11 -1 -42
-4 -70 -8z"/>
<path d="M6128 173 c7 -3 16 -2 19 1 4 3 -2 6 -13 5 -11 0 -14 -3 -6 -6z"/>
<path d="M5623 153 c15 -2 37 -2 50 0 12 2 0 4 -28 4 -27 0 -38 -2 -22 -4z"/>
<path d="M5933 153 c9 -2 23 -2 30 0 6 3 -1 5 -18 5 -16 0 -22 -2 -12 -5z"/>
<path d="M6093 143 c9 -2 25 -2 35 0 9 3 1 5 -18 5 -19 0 -27 -2 -17 -5z"/>
<path d="M6008 43 c7 -3 16 -2 19 1 4 3 -2 6 -13 5 -11 0 -14 -3 -6 -6z"/>
<path d="M5808 23 c6 -2 18 -2 25 0 6 3 1 5 -13 5 -14 0 -19 -2 -12 -5z"/>
</g>
</svg>
